<svg width="40" height="40" viewBox="0 0 40 40" fill="none" xmlns="http://www.w3.org/2000/svg">
<rect width="40" height="40" rx="20" fill="#19332F"/>
<g clip-path="url(#clip0_59_186)">
<path d="M22.7929 11C23.141 11 23.4766 11.121 23.7435 11.3397L23.8536 11.4393L25.4142 13H28C29.0544 13 29.9182 13.8159 29.9945 14.8507L30 15V27C30 28.0544 29.1841 28.9182 28.1493 28.9945L28 29H12C10.9456 29 10.0818 28.1841 10.0055 27.1493L10 27V15C10 13.9456 10.8159 13.0818 11.8507 13.0055L12 13H14.5858L16.1465 11.4393C16.3926 11.1932 16.7155 11.0414 17.0589 11.0073L17.2071 11H22.7929ZM20 15.5C17.2386 15.5 15 17.7386 15 20.5C15 23.2614 17.2386 25.5 20 25.5C22.7614 25.5 25 23.2614 25 20.5C25 17.7386 22.7614 15.5 20 15.5ZM20 17.5C21.6569 17.5 23 18.8431 23 20.5C23 22.1569 21.6569 23.5 20 23.5C18.3431 23.5 17 22.1569 17 20.5C17 18.8431 18.3431 17.5 20 17.5Z" fill="white"/>
</g>
<defs>
<clipPath id="clip0_59_186">
<rect width="24" height="24" fill="white" transform="translate(8 8)"/>
</clipPath>
</defs>
</svg>
