<svg width="32" height="32" viewBox="0 0 32 32" fill="none" xmlns="http://www.w3.org/2000/svg">
<rect width="32" height="32" rx="16" fill="#BFA417"/>
<g clip-path="url(#clip0_1190_748)">
<path d="M17.0826 8.62329L24.2776 21.085C24.3874 21.275 24.4451 21.4905 24.4451 21.7099C24.4451 21.9294 24.3874 22.1449 24.2777 22.3349C24.1679 22.525 24.0102 22.6828 23.8201 22.7925C23.6301 22.9022 23.4146 22.96 23.1951 22.96H8.80514C8.58573 22.96 8.37017 22.9022 8.18016 22.7925C7.99014 22.6828 7.83234 22.525 7.72264 22.3349C7.61293 22.1449 7.55517 21.9294 7.55518 21.7099C7.55518 21.4905 7.61293 21.275 7.72264 21.085L14.9176 8.62329C15.3985 7.78996 16.601 7.78996 17.0826 8.62329ZM16.0001 18.5C15.7791 18.5 15.5672 18.5878 15.4109 18.744C15.2546 18.9003 15.1668 19.1123 15.1668 19.3333C15.1668 19.5543 15.2546 19.7663 15.4109 19.9225C15.5672 20.0788 15.7791 20.1666 16.0001 20.1666C16.2212 20.1666 16.4331 20.0788 16.5894 19.9225C16.7457 19.7663 16.8335 19.5543 16.8335 19.3333C16.8335 19.1123 16.7457 18.9003 16.5894 18.744C16.4331 18.5878 16.2212 18.5 16.0001 18.5ZM16.0001 12.6666C15.796 12.6667 15.599 12.7416 15.4465 12.8772C15.294 13.0129 15.1965 13.1997 15.1726 13.4025L15.1668 13.5V16.8333C15.167 17.0457 15.2484 17.25 15.3942 17.4044C15.54 17.5589 15.7393 17.6518 15.9513 17.6643C16.1633 17.6767 16.3721 17.6077 16.535 17.4714C16.6979 17.3351 16.8026 17.1417 16.8276 16.9308L16.8335 16.8333V13.5C16.8335 13.2789 16.7457 13.067 16.5894 12.9107C16.4331 12.7544 16.2212 12.6666 16.0001 12.6666Z" fill="#FFFCEB"/>
</g>
<defs>
<clipPath id="clip0_1190_748">
<rect width="20" height="20" fill="white" transform="translate(6 6)"/>
</clipPath>
</defs>
</svg>
