<svg width="24" height="24" viewBox="0 0 24 24" fill="none" xmlns="http://www.w3.org/2000/svg">
<path d="M18.9 4.80005C18.9 4.80005 18.2 10.4 15.4 15C17.1 14.7 19.3 14.1 22 13C22 13 22.7 8.40005 18.9 4.80005ZM12.9 7.60005C11.8 6.30005 10.2 4.60005 7.89996 2.90005C5.09996 4.20005 2.99996 6.60005 2.29996 9.60005C6.99996 7.70005 11 7.50005 12.9 7.60005ZM16.3 10.5C16.9 8.90005 17.5 6.60005 17.9 3.80005C13.8 0.800049 9.29996 2.30005 9.29996 2.30005C9.29996 2.30005 13.7 5.70005 16.3 10.5ZM11.1 16.5C12.2 17.8 13.8 19.5001 16.1 21.2001C16.1 21.2001 20.4 19.6 21.7 14.5C21.7 14.4 16.4 16.6 11.1 16.5ZM7.69996 13.4C7.09996 15 6.49996 17.2 6.19996 20.1C6.19996 20.1 9.79996 23 14.8 21.6C14.8 21.6 10.2 18.2 7.69996 13.4ZM1.99996 11.1C1.99996 11.1 1.29996 15.6 5.09996 19.3C5.09996 19.3 5.79996 13.6 8.59996 9.00005C6.89996 9.30005 4.59996 9.90005 1.99996 11.1Z" fill="white"/>
</svg>
