<svg width="40" height="40" viewBox="0 0 40 40" fill="none" xmlns="http://www.w3.org/2000/svg">
<path d="M19.9999 3.33337C16.7036 3.33337 13.4812 4.31086 10.7404 6.14221C7.9996 7.97357 5.86339 10.5765 4.60193 13.622C3.34047 16.6674 3.01042 20.0185 3.6535 23.2515C4.29659 26.4846 5.88394 29.4543 8.21481 31.7852C10.5457 34.116 13.5154 35.7034 16.7484 36.3465C19.9814 36.9896 23.3325 36.6595 26.378 35.398C29.4234 34.1366 32.0264 32.0004 33.8577 29.2595C35.6891 26.5187 36.6666 23.2964 36.6666 20C36.6666 17.8113 36.2355 15.6441 35.3979 13.622C34.5603 11.5999 33.3327 9.76257 31.785 8.21493C30.2374 6.66728 28.4001 5.43963 26.378 4.60205C24.3559 3.76447 22.1886 3.33337 19.9999 3.33337ZM28.6833 16.1834L18.6833 26.1834C18.5283 26.3396 18.344 26.4636 18.1409 26.5482C17.9378 26.6328 17.7199 26.6764 17.4999 26.6764C17.2799 26.6764 17.0621 26.6328 16.859 26.5482C16.6559 26.4636 16.4715 26.3396 16.3166 26.1834L11.3166 21.1834C11.1612 21.028 11.0379 20.8435 10.9538 20.6405C10.8697 20.4374 10.8264 20.2198 10.8264 20C10.8264 19.5562 11.0028 19.1305 11.3166 18.8167C11.6304 18.5029 12.0561 18.3266 12.4999 18.3266C12.9438 18.3266 13.3694 18.5029 13.6833 18.8167L17.4999 22.65L26.3166 13.8167C26.6304 13.5029 27.0561 13.3266 27.4999 13.3266C27.9438 13.3266 28.3694 13.5029 28.6833 13.8167C28.9971 14.1305 29.1734 14.5562 29.1734 15C29.1734 15.4439 28.9971 15.8695 28.6833 16.1834Z" fill="#08875D"/>
</svg>
