<svg width="32" height="32" viewBox="0 0 32 32" fill="none" xmlns="http://www.w3.org/2000/svg">
<rect width="32" height="32" rx="16" fill="#E02D3C"/>
<path d="M9.80482 23.138C10.0652 23.3984 10.4873 23.3984 10.7476 23.138L16.0001 17.8856L21.2525 23.138C21.5129 23.3984 21.935 23.3984 22.1953 23.138L23.1382 22.1952C23.3985 21.9349 23.3985 21.5128 23.1382 21.2524L17.8857 16L23.1382 10.7475C23.3985 10.4872 23.3985 10.065 23.1382 9.8047L22.1953 8.86189C21.935 8.60154 21.5129 8.60154 21.2525 8.86189L16.0001 14.1143L10.7476 8.86189C10.4873 8.60154 10.0652 8.60154 9.80482 8.86189L8.86201 9.8047C8.60166 10.065 8.60166 10.4872 8.86201 10.7475L14.1145 16L8.86201 21.2524C8.60166 21.5128 8.60166 21.9349 8.86201 22.1952L9.80482 23.138Z" fill="white"/>
</svg>
