<svg width="40" height="41" viewBox="0 0 40 41" fill="none" xmlns="http://www.w3.org/2000/svg">
<g id="ic_success">
<path id="Vector" d="M20 3.83331C16.7036 3.83331 13.4813 4.8108 10.7405 6.64215C7.99966 8.47351 5.86346 11.0765 4.60199 14.1219C3.34053 17.1674 3.01048 20.5185 3.65357 23.7515C4.29665 26.9845 5.884 29.9542 8.21487 32.2851C10.5457 34.616 13.5155 36.2033 16.7485 36.8464C19.9815 37.4895 23.3326 37.1594 26.378 35.898C29.4235 34.6365 32.0265 32.5003 33.8578 29.7595C35.6892 27.0187 36.6667 23.7963 36.6667 20.5C36.6667 18.3113 36.2356 16.144 35.398 14.1219C34.5604 12.0998 33.3327 10.2625 31.7851 8.71487C30.2375 7.16722 28.4001 5.93957 26.378 5.10199C24.356 4.26441 22.1887 3.83331 20 3.83331ZM28.6833 16.6833L18.6833 26.6833C18.5284 26.8395 18.344 26.9635 18.1409 27.0481C17.9378 27.1327 17.72 27.1763 17.5 27.1763C17.28 27.1763 17.0621 27.1327 16.859 27.0481C16.6559 26.9635 16.4716 26.8395 16.3167 26.6833L11.3167 21.6833C11.1613 21.5279 11.038 21.3434 10.9539 21.1404C10.8698 20.9374 10.8265 20.7197 10.8265 20.5C10.8265 20.0561 11.0028 19.6305 11.3167 19.3166C11.6305 19.0028 12.0562 18.8265 12.5 18.8265C12.9438 18.8265 13.3695 19.0028 13.6833 19.3166L17.5 23.15L26.3167 14.3166C26.6305 14.0028 27.0562 13.8265 27.5 13.8265C27.9438 13.8265 28.3695 14.0028 28.6833 14.3166C28.9972 14.6305 29.1735 15.0561 29.1735 15.5C29.1735 15.9438 28.9972 16.3695 28.6833 16.6833Z" fill="#08875D"/>
</g>
</svg>
