<svg width="160" height="26" viewBox="0 0 160 26" fill="none" xmlns="http://www.w3.org/2000/svg">
<g clip-path="url(#clip0_485_1190)">
<path d="M160 0.388428V12.7369H155.999V25.0853H135.22V12.7369H139.221V0.388428H160Z" fill="#02B287"/>
<path d="M7.05399 6.98322V5.32514C7.05399 4.33638 7.77664 3.77111 9.49299 3.77111C11.5236 3.77111 12.2917 4.44303 12.2917 5.6066V8.46623H19.0658V5.74837C19.0658 1.83183 15.8157 -0.00366211 9.49299 -0.00366211C2.89891 -0.00366211 0.279901 1.97126 0.279901 5.43179V6.94784C0.279901 14.9945 12.4286 13.1262 12.4286 18.2422V20.1487C12.4286 21.1375 11.6604 21.7002 9.67274 21.7002C7.63955 21.7002 6.69397 21.0665 6.69397 19.9001V17.1822H0.0543671V19.7606C0.0543671 23.6421 2.8102 25.4775 9.58169 25.4775C16.5384 25.4775 19.2003 23.5357 19.2003 20.0065V18.2774C19.2003 9.98228 7.05425 11.9242 7.05425 6.98296L7.05399 6.98322Z" fill="#02B287"/>
<path d="M31.4403 -0.00366211C25.0718 -0.00366211 22.0472 2.07765 22.0472 5.92604V8.60826H28.73V5.78401C28.73 4.61784 29.4069 3.91314 31.3487 3.91314C33.2451 3.91314 33.9246 4.61784 33.9246 5.78401V10.6186H31.3487C24.4404 10.6186 21.6846 12.6999 21.6846 16.9718V20.7137C21.6846 23.7838 24.1691 25.4419 28.4129 25.4419C30.9429 25.4419 33.0193 24.8056 34.6014 23.6774V25.0894H40.7874V6.34953C40.7876 2.07765 37.8062 -0.00366211 31.4403 -0.00366211ZM33.9248 19.7252C33.9248 20.8888 32.7485 21.5607 30.9435 21.5607C29.2729 21.5607 28.3247 20.9955 28.3247 19.9001V16.5485C28.3247 14.713 29.1816 13.9017 30.9435 13.9017H33.9248V19.7252Z" fill="#02B287"/>
<path d="M63.9112 8.6413V6.63074C63.9112 2.07765 60.8386 -0.00366211 54.0645 -0.00366211C46.8848 -0.00366211 44.0403 2.25532 44.0403 7.26728V18.2776C44.0403 23.2188 46.8848 25.4422 54.0645 25.4775C60.8841 25.5129 63.9112 23.3962 63.9112 18.9139V18.7289H57.1371V19.0533C57.1371 20.572 56.0521 21.2767 54.0645 21.2767C51.8539 21.2767 50.9486 20.4299 50.9486 18.384V7.12525C50.9486 5.07931 51.8536 4.1946 54.0645 4.1946C56.0521 4.1946 57.1827 4.93754 57.1827 6.48897V8.6413H63.9112Z" fill="#02B287"/>
<path d="M80.1669 0.384155V10.5831H74.0722V0.384155H67.2068V25.0896H74.0722V14.6066H80.1669V25.0896H87.0323V0.384155H80.1669Z" fill="#02B287"/>
<path d="M110.47 13.6533V6.34953C110.47 2.18405 107.4 -0.00366211 100.489 -0.00366211C93.2208 -0.00366211 90.3737 2.36172 90.3737 7.26728V18.2776C90.3737 23.2188 93.4008 25.4422 100.489 25.4775C107.4 25.5129 110.47 23.3962 110.47 19.4058V16.0543H103.696V19.5478C103.696 20.714 102.568 21.3833 100.671 21.4187C98.187 21.4187 97.2846 20.5363 97.2846 18.384V13.6533H110.47ZM97.2846 7.12499C97.2846 4.93702 98.1872 4.09029 100.671 4.05491C102.702 4.05491 103.83 4.83063 103.83 6.24288V10.7606H97.2843V7.12499H97.2846Z" fill="#02B287"/>
<path d="M112.186 0.384155V4.44299H117.921V25.0896H124.786V4.44299H130.158V0.384155H112.186Z" fill="#02B287"/>
</g>
<defs>
<clipPath id="clip0_485_1190">
<rect width="160" height="25.4742" fill="white"/>
</clipPath>
</defs>
</svg>
