<svg width="16" height="16" viewBox="0 0 16 16" fill="none" xmlns="http://www.w3.org/2000/svg">
<path fill-rule="evenodd" clip-rule="evenodd" d="M4 5.33337C4 3.12423 5.79086 1.33337 8 1.33337C10.2091 1.33337 12 3.12423 12 5.33337H12.6667C13.4031 5.33337 14 5.93033 14 6.66671V13.3334C14 14.0698 13.4031 14.6667 12.6667 14.6667H3.33333C2.59695 14.6667 2 14.0698 2 13.3334V6.66671C2 5.93033 2.59695 5.33337 3.33333 5.33337H4ZM8 2.66671C9.47273 2.66671 10.6667 3.86061 10.6667 5.33337H5.33333C5.33333 3.86061 6.52724 2.66671 8 2.66671ZM9.33333 9.33337C9.33333 9.82691 9.0652 10.2578 8.66667 10.4883V11.3334C8.66667 11.7016 8.3682 12 8 12C7.6318 12 7.33333 11.7016 7.33333 11.3334V10.4883C6.9348 10.2578 6.66667 9.82691 6.66667 9.33337C6.66667 8.59697 7.2636 8.00004 8 8.00004C8.7364 8.00004 9.33333 8.59697 9.33333 9.33337Z" fill="#19332F"/>
</svg>
