<svg width="16" height="16" viewBox="0 0 16 16" fill="none" xmlns="http://www.w3.org/2000/svg">
<path d="M8 8.66671C9.597 8.66671 11.0502 9.12917 12.1185 9.78104C12.6524 10.1068 13.1081 10.4909 13.4373 10.9077C13.7613 11.3178 14 11.8087 14 12.3334C14 12.8966 13.7259 13.3408 13.3315 13.6573C12.9579 13.9573 12.4655 14.1558 11.9419 14.2944C10.8902 14.5729 9.486 14.6667 8 14.6667C6.51401 14.6667 5.10977 14.5729 4.05811 14.2944C3.53455 14.1558 3.04216 13.9573 2.66844 13.6573C2.27409 13.3408 2 12.8966 2 12.3334C2 11.8087 2.2387 11.3178 2.56265 10.9077C2.89192 10.4909 3.34762 10.1068 3.88151 9.78104C4.94978 9.12917 6.40302 8.66671 8 8.66671ZM8 1.33337C9.84093 1.33337 11.3333 2.82576 11.3333 4.66671C11.3333 6.50765 9.84093 8.00004 8 8.00004C6.15905 8.00004 4.66667 6.50765 4.66667 4.66671C4.66667 2.82576 6.15905 1.33337 8 1.33337Z" fill="#19332F"/>
</svg>
