<svg width="40" height="40" viewBox="0 0 40 40" fill="none" xmlns="http://www.w3.org/2000/svg">
<rect width="40" height="40" rx="20" fill="#19332F"/>
<path d="M18 12C19.0609 12 20.0783 12.4214 20.8284 13.1716C21.5786 13.9217 22 14.9391 22 16C22 17.0609 21.5786 18.0783 20.8284 18.8284C20.0783 19.5786 19.0609 20 18 20C16.9391 20 15.9217 19.5786 15.1716 18.8284C14.4214 18.0783 14 17.0609 14 16C14 14.9391 14.4214 13.9217 15.1716 13.1716C15.9217 12.4214 16.9391 12 18 12ZM18 22C22.42 22 26 23.79 26 26V28H10V26C10 23.79 13.58 22 18 22ZM28 20V15H30V21H28M28 25V23H30V25H28Z" fill="white"/>
</svg>
